<svg width="139" height="25" viewBox="0 0 139 25" fill="none" xmlns="http://www.w3.org/2000/svg">
<path d="M34.5864 22.225C32.7364 22.225 31.1198 21.85 29.7364 21.1C28.3698 20.3333 27.3114 19.2583 26.5614 17.875C25.8281 16.4917 25.4614 14.8917 25.4614 13.075C25.4614 11.275 25.8281 9.69167 26.5614 8.325C27.3114 6.94167 28.3698 5.875 29.7364 5.125C31.1198 4.35833 32.7364 3.975 34.5864 3.975C35.7531 3.975 36.8781 4.15 37.9614 4.5C39.0614 4.85 39.9448 5.325 40.6114 5.925L39.1864 9.25C37.7364 8.2 36.2364 7.675 34.6864 7.675C33.2531 7.675 32.1531 8.13333 31.3864 9.05C30.6198 9.95 30.2364 11.2917 30.2364 13.075C30.2364 14.875 30.6198 16.2333 31.3864 17.15C32.1531 18.0667 33.2531 18.525 34.6864 18.525C36.2364 18.525 37.7364 18 39.1864 16.95L40.6114 20.275C39.9448 20.875 39.0614 21.35 37.9614 21.7C36.8781 22.05 35.7531 22.225 34.5864 22.225ZM54.1054 18.325H46.2054L44.6304 22H39.9304L48.2554 4.2H51.9554L60.3054 22H55.6804L54.1054 18.325ZM52.5804 14.8L50.1554 9.175L47.7304 14.8H52.5804ZM68.7554 22.225C66.9054 22.225 65.2887 21.85 63.9054 21.1C62.5387 20.3333 61.4804 19.2583 60.7304 17.875C59.997 16.4917 59.6304 14.8917 59.6304 13.075C59.6304 11.275 59.997 9.69167 60.7304 8.325C61.4804 6.94167 62.5387 5.875 63.9054 5.125C65.2887 4.35833 66.9054 3.975 68.7554 3.975C69.922 3.975 71.047 4.15 72.1304 4.5C73.2304 4.85 74.1137 5.325 74.7804 5.925L73.3554 9.25C71.9054 8.2 70.4054 7.675 68.8554 7.675C67.422 7.675 66.322 8.13333 65.5554 9.05C64.7887 9.95 64.4054 11.2917 64.4054 13.075C64.4054 14.875 64.7887 16.2333 65.5554 17.15C66.322 18.0667 67.422 18.525 68.8554 18.525C70.4054 18.525 71.9054 18 73.3554 16.95L74.7804 20.275C74.1137 20.875 73.2304 21.35 72.1304 21.7C71.047 22.05 69.922 22.225 68.7554 22.225ZM80.2255 8H74.9255V4.2H90.2755V8H84.9755V22H80.2255V8ZM99.2429 22.225C96.6429 22.225 94.6762 21.575 93.3429 20.275C92.0095 18.9583 91.3429 17.0333 91.3429 14.5V4.2H95.9179V14.675C95.9179 15.9583 96.2012 16.9417 96.7679 17.625C97.3512 18.3083 98.1762 18.65 99.2429 18.65C100.293 18.65 101.101 18.3083 101.668 17.625C102.235 16.925 102.518 15.9417 102.518 14.675V4.2H107.143V14.5C107.143 17 106.46 18.9167 105.093 20.25C103.743 21.5667 101.793 22.225 99.2429 22.225ZM115.917 22.225C114.583 22.225 113.267 22.05 111.967 21.7C110.667 21.35 109.608 20.875 108.792 20.275L110.267 16.95C111.133 17.5 112.05 17.925 113.017 18.225C114 18.5083 114.983 18.65 115.967 18.65C116.967 18.65 117.733 18.5167 118.267 18.25C118.8 17.9667 119.067 17.575 119.067 17.075C119.067 16.625 118.825 16.2583 118.342 15.975C117.858 15.675 116.95 15.3833 115.617 15.1C113.933 14.7667 112.625 14.3583 111.692 13.875C110.758 13.375 110.1 12.7917 109.717 12.125C109.35 11.4583 109.167 10.65 109.167 9.7C109.167 8.61667 109.475 7.64167 110.092 6.775C110.708 5.89167 111.575 5.20833 112.692 4.725C113.808 4.225 115.083 3.975 116.517 3.975C117.8 3.975 119.042 4.15833 120.242 4.525C121.458 4.875 122.408 5.34167 123.092 5.925L121.642 9.25C120.858 8.7 120.033 8.28333 119.167 8C118.3 7.7 117.433 7.55 116.567 7.55C115.717 7.55 115.033 7.71667 114.517 8.05C114 8.36667 113.742 8.8 113.742 9.35C113.742 9.65 113.833 9.9 114.017 10.1C114.2 10.3 114.542 10.5 115.042 10.7C115.542 10.8833 116.292 11.0833 117.292 11.3C118.908 11.65 120.175 12.075 121.092 12.575C122.025 13.0583 122.683 13.6333 123.067 14.3C123.45 14.95 123.642 15.7333 123.642 16.65C123.642 18.3833 122.967 19.75 121.617 20.75C120.267 21.7333 118.367 22.225 115.917 22.225Z" fill="#020503"/>
<rect x="4" y="21.2857" width="6.7619" height="5.91667" transform="rotate(-90 4 21.2857)" fill="#0F4C75" fill-opacity="0.8"/>
<rect x="9.91666" y="21.2857" width="13.5238" height="5.91667" transform="rotate(-90 9.91666 21.2857)" fill="#3282B8"/>
<rect x="15.8333" y="21.2857" width="20.2857" height="5.91667" transform="rotate(-90 15.8333 21.2857)" fill="#BBE1FA"/>
<circle cx="127" cy="19" r="3" fill="black"/>
</svg>
