<svg width="139" height="25" viewBox="0 0 139 25" fill="none" xmlns="http://www.w3.org/2000/svg">
<path d="M35.0664 22.3174C39.644 22.3174 42.8667 19.3755 43.0254 15.4326L43.0376 15.2983H38.7285L38.7041 15.4326C38.3989 17.3979 37.0195 18.6064 35.0786 18.6064C32.625 18.6064 31.0625 16.5801 31.0625 13.1743V13.1621C31.0625 9.79297 32.6128 7.77881 35.0664 7.77881C37.1172 7.77881 38.3989 9.07275 38.6797 10.9038L38.7041 11.0869H43.0132V10.9648C42.8545 7.02197 39.6685 4.06787 35.0664 4.06787C29.8052 4.06787 26.4971 7.4248 26.4971 13.1743V13.1865C26.4971 18.936 29.7808 22.3174 35.0664 22.3174ZM42.4951 22H47.1948L48.2935 18.1304H54.0186L55.1172 22H59.8169L53.8965 4.38525H48.4155L42.4951 22ZM51.1133 8.21826H51.1987L53.103 14.9077H49.209L51.1133 8.21826ZM67.7949 22.3174C72.3726 22.3174 75.5952 19.3755 75.7539 15.4326L75.7661 15.2983H71.457L71.4326 15.4326C71.1274 17.3979 69.748 18.6064 67.8071 18.6064C65.3535 18.6064 63.791 16.5801 63.791 13.1743V13.1621C63.791 9.79297 65.3413 7.77881 67.7949 7.77881C69.8457 7.77881 71.1274 9.07275 71.4082 10.9038L71.4326 11.0869H75.7417V10.9648C75.583 7.02197 72.397 4.06787 67.7949 4.06787C62.5337 4.06787 59.2256 7.4248 59.2256 13.1743V13.1865C59.2256 18.936 62.5093 22.3174 67.7949 22.3174ZM80.8267 22H85.2944V7.98633H90.1528V4.38525H75.9683V7.98633H80.8267V22ZM98.8755 22.3174C103.502 22.3174 106.468 19.7051 106.468 15.75V4.38525H101.988V15.3228C101.988 17.3735 100.89 18.6064 98.8877 18.6064C96.8735 18.6064 95.7749 17.3735 95.7749 15.3228V4.38525H91.2949V15.75C91.2949 19.7173 94.2856 22.3174 98.8755 22.3174ZM115.179 22.3174C119.842 22.3174 122.601 20.0835 122.601 16.5679V16.5557C122.601 13.7358 120.867 12.2222 117.132 11.502L115.325 11.1602C113.433 10.8062 112.603 10.3057 112.603 9.35352V9.34131C112.603 8.32812 113.531 7.5835 115.179 7.5835C116.79 7.5835 117.925 8.30371 118.06 9.46338L118.072 9.59766H122.234L122.222 9.34131C122.063 6.14307 119.561 4.06787 115.142 4.06787C111.102 4.06787 108.16 6.25293 108.16 9.64648V9.65869C108.16 12.3564 110.003 14.0776 113.494 14.7246L115.301 15.0664C117.364 15.4692 118.145 15.9331 118.145 16.9341V16.9463C118.145 18.0449 117.046 18.8018 115.264 18.8018C113.543 18.8018 112.225 18.0571 112.005 16.9219L111.98 16.7876H107.818L107.83 17.0073C108.025 20.3765 110.796 22.3174 115.179 22.3174Z" fill="#ffffff"/>
<rect x="4" y="21.2857" width="6.7619" height="5.91667" transform="rotate(-90 4 21.2857)" fill="#161616" fill-opacity="0.8"/>
<rect x="9.91666" y="21.2857" width="13.5238" height="5.91667" transform="rotate(-90 9.91666 21.2857)" fill="#96BB7C"/>
<rect x="15.8333" y="21.2857" width="20.2857" height="5.91667" transform="rotate(-90 15.8333 21.2857)" fill="#D6EFC7"/>
<circle cx="127" cy="19" r="3" fill="white"/>
</svg>
