<svg width="82" height="82" viewBox="0 0 82 82" fill="none" xmlns="http://www.w3.org/2000/svg">
<circle cx="41" cy="41" r="41" fill="#161616"/>
<path d="M62.5 22H19.75C17.1266 22 15 24.1266 15 26.75V55.25C15 57.8734 17.1266 60 19.75 60H62.5C65.1234 60 67.25 57.8734 67.25 55.25V26.75C67.25 24.1266 65.1234 22 62.5 22Z" stroke="white" stroke-width="2" stroke-linecap="round" stroke-linejoin="round"/>
<path d="M15 36.25H67.25" stroke="white" stroke-width="2" stroke-linecap="round" stroke-linejoin="round"/>
<path d="M21.0028 43.9126L21.1981 43.5757L20.705 43.3218L21.1957 43.0679L21.0004 42.731L20.5365 43.0312L20.5658 42.4771H20.1752L20.2021 43.0337L19.7357 42.731L19.5404 43.0679L20.0336 43.3218L19.5404 43.5757L19.7357 43.915L20.2021 43.6123L20.1752 44.1665H20.5658L20.5365 43.6123L21.0028 43.9126ZM23.0892 43.9126L23.2845 43.5757L22.7913 43.3218L23.282 43.0679L23.0867 42.731L22.6229 43.0312L22.6521 42.4771H22.2615L22.2884 43.0337L21.8221 42.731L21.6268 43.0679L22.1199 43.3218L21.6268 43.5757L21.8221 43.915L22.2884 43.6123L22.2615 44.1665H22.6521L22.6229 43.6123L23.0892 43.9126ZM25.1755 43.9126L25.3708 43.5757L24.8776 43.3218L25.3684 43.0679L25.173 42.731L24.7092 43.0312L24.7385 42.4771H24.3479L24.3747 43.0337L23.9084 42.731L23.7131 43.0679L24.2062 43.3218L23.7131 43.5757L23.9084 43.915L24.3747 43.6123L24.3479 44.1665H24.7385L24.7092 43.6123L25.1755 43.9126ZM27.2618 43.9126L27.4571 43.5757L26.964 43.3218L27.4547 43.0679L27.2594 42.731L26.7955 43.0312L26.8248 42.4771H26.4342L26.461 43.0337L25.9947 42.731L25.7994 43.0679L26.2926 43.3218L25.7994 43.5757L25.9947 43.915L26.461 43.6123L26.4342 44.1665H26.8248L26.7955 43.6123L27.2618 43.9126Z" fill="#EEEEEE"/>
<path d="M33.0028 43.9126L33.1981 43.5757L32.705 43.3218L33.1957 43.0679L33.0004 42.731L32.5365 43.0312L32.5658 42.4771H32.1752L32.2021 43.0337L31.7357 42.731L31.5404 43.0679L32.0336 43.3218L31.5404 43.5757L31.7357 43.915L32.2021 43.6123L32.1752 44.1665H32.5658L32.5365 43.6123L33.0028 43.9126ZM35.0892 43.9126L35.2845 43.5757L34.7913 43.3218L35.282 43.0679L35.0867 42.731L34.6229 43.0312L34.6521 42.4771H34.2615L34.2884 43.0337L33.8221 42.731L33.6268 43.0679L34.1199 43.3218L33.6268 43.5757L33.8221 43.915L34.2884 43.6123L34.2615 44.1665H34.6521L34.6229 43.6123L35.0892 43.9126ZM37.1755 43.9126L37.3708 43.5757L36.8776 43.3218L37.3684 43.0679L37.173 42.731L36.7092 43.0312L36.7385 42.4771H36.3479L36.3747 43.0337L35.9084 42.731L35.7131 43.0679L36.2062 43.3218L35.7131 43.5757L35.9084 43.915L36.3747 43.6123L36.3479 44.1665H36.7385L36.7092 43.6123L37.1755 43.9126ZM39.2618 43.9126L39.4571 43.5757L38.964 43.3218L39.4547 43.0679L39.2594 42.731L38.7955 43.0312L38.8248 42.4771H38.4342L38.461 43.0337L37.9947 42.731L37.7994 43.0679L38.2926 43.3218L37.7994 43.5757L37.9947 43.915L38.461 43.6123L38.4342 44.1665H38.8248L38.7955 43.6123L39.2618 43.9126Z" fill="#EEEEEE"/>
<path d="M45.0028 43.9126L45.1981 43.5757L44.705 43.3218L45.1957 43.0679L45.0004 42.731L44.5365 43.0312L44.5658 42.4771H44.1752L44.2021 43.0337L43.7357 42.731L43.5404 43.0679L44.0336 43.3218L43.5404 43.5757L43.7357 43.915L44.2021 43.6123L44.1752 44.1665H44.5658L44.5365 43.6123L45.0028 43.9126ZM47.0892 43.9126L47.2845 43.5757L46.7913 43.3218L47.282 43.0679L47.0867 42.731L46.6229 43.0312L46.6521 42.4771H46.2615L46.2884 43.0337L45.8221 42.731L45.6268 43.0679L46.1199 43.3218L45.6268 43.5757L45.8221 43.915L46.2884 43.6123L46.2615 44.1665H46.6521L46.6229 43.6123L47.0892 43.9126ZM49.1755 43.9126L49.3708 43.5757L48.8776 43.3218L49.3684 43.0679L49.173 42.731L48.7092 43.0312L48.7385 42.4771H48.3479L48.3747 43.0337L47.9084 42.731L47.7131 43.0679L48.2062 43.3218L47.7131 43.5757L47.9084 43.915L48.3747 43.6123L48.3479 44.1665H48.7385L48.7092 43.6123L49.1755 43.9126ZM51.2618 43.9126L51.4571 43.5757L50.964 43.3218L51.4547 43.0679L51.2594 42.731L50.7955 43.0312L50.8248 42.4771H50.4342L50.461 43.0337L49.9947 42.731L49.7994 43.0679L50.2926 43.3218L49.7994 43.5757L49.9947 43.915L50.461 43.6123L50.4342 44.1665H50.8248L50.7955 43.6123L51.2618 43.9126Z" fill="#EEEEEE"/>
<path d="M57.0028 43.9126L57.1981 43.5757L56.705 43.3218L57.1957 43.0679L57.0004 42.731L56.5365 43.0312L56.5658 42.4771H56.1752L56.2021 43.0337L55.7357 42.731L55.5404 43.0679L56.0336 43.3218L55.5404 43.5757L55.7357 43.915L56.2021 43.6123L56.1752 44.1665H56.5658L56.5365 43.6123L57.0028 43.9126ZM59.0892 43.9126L59.2845 43.5757L58.7913 43.3218L59.282 43.0679L59.0867 42.731L58.6229 43.0312L58.6521 42.4771H58.2615L58.2884 43.0337L57.8221 42.731L57.6268 43.0679L58.1199 43.3218L57.6268 43.5757L57.8221 43.915L58.2884 43.6123L58.2615 44.1665H58.6521L58.6229 43.6123L59.0892 43.9126ZM61.1755 43.9126L61.3708 43.5757L60.8776 43.3218L61.3684 43.0679L61.173 42.731L60.7092 43.0312L60.7385 42.4771H60.3479L60.3747 43.0337L59.9084 42.731L59.7131 43.0679L60.2062 43.3218L59.7131 43.5757L59.9084 43.915L60.3747 43.6123L60.3479 44.1665H60.7385L60.7092 43.6123L61.1755 43.9126ZM63.2618 43.9126L63.4571 43.5757L62.964 43.3218L63.4547 43.0679L63.2594 42.731L62.7955 43.0312L62.8248 42.4771H62.4342L62.461 43.0337L61.9947 42.731L61.7994 43.0679L62.2926 43.3218L61.7994 43.5757L61.9947 43.915L62.461 43.6123L62.4342 44.1665H62.8248L62.7955 43.6123L63.2618 43.9126Z" fill="#EEEEEE"/>
<path d="M19.4214 50H19.5952L20.1147 48.5908H19.9302L19.5102 49.7891H19.5063L19.0864 48.5908H18.9018L19.4214 50ZM19.9473 50H20.1319L20.2735 49.5967H20.834L20.9756 50H21.1602L20.6407 48.5908H20.4668L19.9473 50ZM20.5518 48.8018H20.5557L20.7823 49.4473H20.3252L20.5518 48.8018ZM21.2613 50H22.1168V49.8418H21.4371V48.5908H21.2613V50ZM22.2502 50H22.4259V48.5908H22.2502V50ZM22.6394 50H23.113C23.532 50 23.778 49.7393 23.778 49.2949V49.293C23.778 48.8506 23.53 48.5908 23.113 48.5908H22.6394V50ZM22.8152 49.8418V48.749H23.1013C23.4206 48.749 23.5984 48.9434 23.5984 49.2949V49.2969C23.5984 49.6465 23.4206 49.8418 23.1013 49.8418H22.8152ZM24.6434 50H24.8192V48.749H25.2635V48.5908H24.1991V48.749H24.6434V50ZM25.3891 50H25.5648V49.3584H26.3383V50H26.5141V48.5908H26.3383V49.2002H25.5648V48.5908H25.3891V50ZM26.7275 50H26.9033V49.4424H27.2402L27.542 50H27.748L27.4218 49.415C27.5976 49.3594 27.705 49.208 27.705 49.0127V49.0107C27.705 48.7568 27.5273 48.5908 27.2558 48.5908H26.7275V50ZM26.9033 49.2871V48.7471H27.2324C27.413 48.7471 27.5234 48.8467 27.5234 49.0146V49.0166C27.5234 49.1895 27.4209 49.2871 27.2402 49.2871H26.9033ZM28.4273 50.0234C28.7769 50.0234 28.9859 49.8125 28.9859 49.5059V48.5908H28.8101V49.4941C28.8101 49.7109 28.6714 49.8613 28.4273 49.8613C28.1831 49.8613 28.0425 49.7109 28.0425 49.4941V48.5908H27.8667V49.5059C27.8667 49.8125 28.0777 50.0234 28.4273 50.0234Z" fill="#919191"/>
<path d="M20.3871 54.0293C20.7924 54.0293 21.0353 53.679 21.0353 53.1199V53.1174C21.0353 52.5583 20.7924 52.2092 20.3871 52.2092C19.9818 52.2092 19.7414 52.5583 19.7414 53.1174V53.1199C19.7414 53.679 19.9818 54.0293 20.3871 54.0293ZM20.3871 53.8376C20.1186 53.8376 19.9623 53.5618 19.9623 53.1199V53.1174C19.9623 52.6755 20.1186 52.4021 20.3871 52.4021C20.6557 52.4021 20.8144 52.6755 20.8144 53.1174V53.1199C20.8144 53.5618 20.6557 53.8376 20.3871 53.8376ZM21.8343 52.2092C21.4742 52.2092 21.2105 52.4607 21.2105 52.8074V52.8098C21.2105 53.1443 21.4596 53.3921 21.7953 53.3921C22.0345 53.3921 22.2152 53.2651 22.286 53.1089H22.2909C22.2884 53.4958 22.1615 53.8352 21.8221 53.8352C21.6415 53.8352 21.5157 53.7449 21.4632 53.5996L21.4583 53.5862H21.235L21.2386 53.6021C21.2972 53.8584 21.5206 54.0293 21.8197 54.0293C22.2506 54.0293 22.5033 53.6826 22.5033 53.0894V53.0869C22.5033 52.4338 22.159 52.2092 21.8343 52.2092ZM21.8331 53.1992C21.6012 53.1992 21.4339 53.0344 21.4339 52.8049V52.8025C21.4339 52.5803 21.6122 52.4045 21.8368 52.4045C22.0626 52.4045 22.2384 52.584 22.2384 52.8098V52.811C22.2384 53.0356 22.0638 53.1992 21.8331 53.1992ZM23.2388 52.2385H23.0362L22.5394 54.4272H22.742L23.2388 52.2385ZM23.3054 54H24.4688V53.8047H23.6069V53.7998L24.0256 53.3701C24.3491 53.0393 24.4382 52.894 24.4382 52.7012V52.6987C24.4382 52.4229 24.2051 52.2092 23.8865 52.2092C23.5581 52.2092 23.2944 52.4351 23.2944 52.7402V52.7476H23.5068V52.7415C23.5068 52.5522 23.6704 52.4009 23.8901 52.4009C24.0818 52.4009 24.2173 52.5303 24.2185 52.7097V52.7122C24.2185 52.8586 24.1636 52.9539 23.9255 53.2017L23.3054 53.8486V54ZM25.2604 54.0293C25.6657 54.0293 25.9086 53.679 25.9086 53.1199V53.1174C25.9086 52.5583 25.6657 52.2092 25.2604 52.2092C24.8552 52.2092 24.6147 52.5583 24.6147 53.1174V53.1199C24.6147 53.679 24.8552 54.0293 25.2604 54.0293ZM25.2604 53.8376C24.9919 53.8376 24.8356 53.5618 24.8356 53.1199V53.1174C24.8356 52.6755 24.9919 52.4021 25.2604 52.4021C25.529 52.4021 25.6877 52.6755 25.6877 53.1174V53.1199C25.6877 53.5618 25.529 53.8376 25.2604 53.8376ZM26.0631 54H27.2265V53.8047H26.3646V53.7998L26.7833 53.3701C27.1068 53.0393 27.1959 52.894 27.1959 52.7012V52.6987C27.1959 52.4229 26.9628 52.2092 26.6442 52.2092C26.3158 52.2092 26.0521 52.4351 26.0521 52.7402V52.7476H26.2646V52.7415C26.2646 52.5522 26.4281 52.4009 26.6479 52.4009C26.8395 52.4009 26.975 52.5303 26.9762 52.7097V52.7122C26.9762 52.8586 26.9213 52.9539 26.6833 53.2017L26.0631 53.8486V54ZM27.8534 54H28.0658V52.2385H27.8509L27.3822 52.5754V52.7964L27.8485 52.4717H27.8534V54Z" fill="white"/>
<path d="M48.6051 54H48.8175V53.2041C48.8175 53.0271 48.9396 52.894 49.108 52.894C49.2655 52.894 49.368 52.9954 49.368 53.1492V54H49.5804V53.1931C49.5804 53.0198 49.6988 52.894 49.8673 52.894C50.0345 52.894 50.131 52.9978 50.131 53.1724V54H50.3434V53.1235C50.3434 52.8708 50.181 52.7061 49.9295 52.7061C49.7513 52.7061 49.6024 52.7976 49.5316 52.9502H49.5267C49.4718 52.7952 49.3436 52.7061 49.1703 52.7061C49.0067 52.7061 48.8797 52.7903 48.8224 52.916H48.8175V52.7305H48.6051V54ZM50.9104 54.0244C51.0801 54.0244 51.2327 53.9329 51.3072 53.7937H51.3121V54H51.5245V53.1223C51.5245 52.8684 51.3365 52.7061 51.0362 52.7061C50.7371 52.7061 50.5552 52.8745 50.5369 53.0833L50.5357 53.0967H50.7408L50.7432 53.0857C50.7676 52.9722 50.8702 52.894 51.0337 52.894C51.2107 52.894 51.3121 52.988 51.3121 53.1431V53.2493L50.9483 53.27C50.6565 53.2871 50.4881 53.4226 50.4881 53.6387V53.6411C50.4881 53.8718 50.6578 54.0244 50.9104 54.0244ZM50.7054 53.6411V53.6387C50.7054 53.5203 50.803 53.4446 50.9727 53.4348L51.3121 53.4141V53.5178C51.3121 53.7021 51.1583 53.8401 50.9581 53.8401C50.8055 53.8401 50.7054 53.7632 50.7054 53.6411ZM52.1697 54.0244C52.4529 54.0244 52.6628 53.8682 52.6628 53.646V53.6448C52.6628 53.4641 52.5701 53.3628 52.3137 53.3005L52.1123 53.2517C51.9719 53.2175 51.9146 53.1577 51.9146 53.071V53.0698C51.9146 52.9575 52.0098 52.8831 52.1636 52.8831C52.321 52.8831 52.415 52.9648 52.4321 53.0881L52.4333 53.0967H52.636L52.6348 53.0808C52.6189 52.8684 52.4419 52.7061 52.1636 52.7061C51.8889 52.7061 51.6973 52.8611 51.6973 53.0796V53.0808C51.6973 53.2639 51.8132 53.375 52.0525 53.4324L52.2539 53.4812C52.3979 53.5166 52.4456 53.5679 52.4456 53.6594V53.6606C52.4456 53.7754 52.343 53.8474 52.1709 53.8474C51.9976 53.8474 51.9036 53.7729 51.8779 53.646L51.8755 53.6338H51.6631L51.6643 53.6448C51.6899 53.8718 51.8706 54.0244 52.1697 54.0244ZM53.2214 54.0244C53.2629 54.0244 53.3081 54.0195 53.3349 54.0159V53.8438C53.3166 53.845 53.2922 53.8486 53.2666 53.8486C53.153 53.8486 53.0932 53.8108 53.0932 53.6753V52.9062H53.3349V52.7305H53.0932V52.3875H52.8735V52.7305H52.6879V52.9062H52.8735V53.6765C52.8735 53.9194 52.9882 54.0244 53.2214 54.0244ZM53.974 54.0244C54.2511 54.0244 54.4586 53.8584 54.5001 53.6484L54.5026 53.6362H54.2938L54.2902 53.6472C54.2536 53.7559 54.14 53.8364 53.9789 53.8364C53.7531 53.8364 53.609 53.6838 53.6042 53.4226H54.5185V53.3445C54.5185 52.9636 54.3073 52.7061 53.9606 52.7061C53.6139 52.7061 53.3893 52.9758 53.3893 53.3689V53.3701C53.3893 53.7693 53.609 54.0244 53.974 54.0244ZM53.9594 52.894C54.1449 52.894 54.2816 53.01 54.3024 53.2566H53.6078C53.631 53.0198 53.775 52.894 53.9594 52.894ZM54.6583 54H54.8707V53.2065C54.8707 53.0271 54.9781 52.9087 55.1429 52.9087C55.1942 52.9087 55.2394 52.9148 55.2564 52.9209V52.7146C55.2394 52.7122 55.2076 52.7061 55.171 52.7061C55.0221 52.7061 54.9049 52.7952 54.8634 52.9355H54.8585V52.7305H54.6583V54ZM55.8199 54.0244C56.1067 54.0244 56.3155 53.8376 56.3497 53.5959L56.3509 53.5874H56.1421L56.1397 53.5972C56.1043 53.7388 55.9932 53.8364 55.8199 53.8364C55.6001 53.8364 55.4488 53.6619 55.4488 53.3665V53.3652C55.4488 53.0771 55.5965 52.894 55.8174 52.894C56.0042 52.894 56.1067 53.0063 56.1385 53.1333L56.1409 53.1431H56.3484L56.3472 53.1333C56.3204 52.916 56.1336 52.7061 55.8174 52.7061C55.4646 52.7061 55.2315 52.9624 55.2315 53.3628V53.364C55.2315 53.7681 55.4598 54.0244 55.8199 54.0244ZM56.8423 54.0244C57.012 54.0244 57.1646 53.9329 57.239 53.7937H57.2439V54H57.4563V53.1223C57.4563 52.8684 57.2683 52.7061 56.968 52.7061C56.6689 52.7061 56.4871 52.8745 56.4688 53.0833L56.4675 53.0967H56.6726L56.675 53.0857C56.6995 52.9722 56.802 52.894 56.9656 52.894C57.1426 52.894 57.2439 52.988 57.2439 53.1431V53.2493L56.8801 53.27C56.5884 53.2871 56.4199 53.4226 56.4199 53.6387V53.6411C56.4199 53.8718 56.5896 54.0244 56.8423 54.0244ZM56.6372 53.6411V53.6387C56.6372 53.5203 56.7349 53.4446 56.9045 53.4348L57.2439 53.4141V53.5178C57.2439 53.7021 57.0901 53.8401 56.8899 53.8401C56.7373 53.8401 56.6372 53.7632 56.6372 53.6411ZM57.6511 54H57.8635V53.2065C57.8635 53.0271 57.9709 52.9087 58.1357 52.9087C58.187 52.9087 58.2321 52.9148 58.2492 52.9209V52.7146C58.2321 52.7122 58.2004 52.7061 58.1638 52.7061C58.0148 52.7061 57.8977 52.7952 57.8562 52.9355H57.8513V52.7305H57.6511V54ZM58.7638 54.0244C58.9457 54.0244 59.0873 53.9329 59.1667 53.7852H59.1715V54H59.3839V52.2385H59.1715V52.9429H59.1667C59.0873 52.7964 58.9396 52.7061 58.7602 52.7061C58.4416 52.7061 58.2243 52.9636 58.2243 53.364V53.3652C58.2243 53.7656 58.4391 54.0244 58.7638 54.0244ZM58.8053 53.8364C58.5807 53.8364 58.4416 53.657 58.4416 53.3652V53.364C58.4416 53.0747 58.5807 52.894 58.8053 52.894C59.0189 52.894 59.1728 53.0808 59.1728 53.364V53.3652C59.1728 53.6497 59.0202 53.8364 58.8053 53.8364Z" fill="white"/>
<circle cx="61" cy="53" r="1" fill="#ED2222"/>
<circle cx="62" cy="53" r="1" fill="#F29912"/>
</svg>
