<svg width="72" height="72" viewBox="0 0 72 72" fill="none" xmlns="http://www.w3.org/2000/svg">
<path d="M36 72C55.8823 72 72 55.8823 72 36C72 16.1177 55.8823 0 36 0C16.1177 0 0 16.1177 0 36C0 55.8823 16.1177 72 36 72Z" fill="#184D47"/>
<path d="M31.6898 51.4639C32.5299 51.4639 33.2109 50.7829 33.2109 49.9428C33.2109 49.1028 32.5299 48.4218 31.6898 48.4218C30.8497 48.4218 30.1687 49.1028 30.1687 49.9428C30.1687 50.7829 30.8497 51.4639 31.6898 51.4639Z" stroke="white" stroke-width="2" stroke-linecap="round" stroke-linejoin="round"/>
<path d="M48.4217 51.4639C49.2618 51.4639 49.9428 50.7829 49.9428 49.9428C49.9428 49.1028 49.2618 48.4218 48.4217 48.4218C47.5817 48.4218 46.9007 49.1028 46.9007 49.9428C46.9007 50.7829 47.5817 51.4639 48.4217 51.4639Z" stroke="white" stroke-width="2" stroke-linecap="round" stroke-linejoin="round"/>
<path d="M19.5211 19.5211H25.6054L29.682 39.8885C29.821 40.5888 30.202 41.2178 30.7582 41.6656C31.3144 42.1133 32.0103 42.3511 32.7241 42.3374H47.5091C48.2229 42.3511 48.9189 42.1133 49.475 41.6656C50.0312 41.2178 50.4122 40.5888 50.5513 39.8885L52.985 27.1266H27.1265" stroke="white" stroke-width="2" stroke-linecap="round" stroke-linejoin="round"/>
</svg>
